# xmcd
#
# Track frame offsets: 
#        150
#        28110
#        48965
#        69390
#        91744
#        112483
#        132173
#        158430
#        187930
#        211227
#        234004
#        260616
#        281324
#        301687
#        308216
#
# Disc length: 4373 seconds
#
# Revision: 0
# Processed by: cddbd v1.5.1PL2 Copyright (c) Steve Scherf et al.
# Submitted via: ExactAudioCopy v0.95b4
#
DISCID=bc11130f
DTITLE=Tech N9ne - The Calm Before the Storm
DYEAR=1999
DGENRE=Rap
TTITLE0=Planet Rock 2K [Down South Mix] (Feat. Don Juan)
TTITLE1=Cloudy-Eyed Stroll [Remix] (Feat. Don Juan, Paul Law, and Lani
TTITLE1=ka)
TTITLE2=Flipside [Rough Version] (Feat. Mel)
TTITLE3=Mizzizy Gets Bizzy (Feat. Don Juan and Lyric)
TTITLE4=On Our Way to L.A. (Feat. Don Juan
TTITLE5=Spend the Night with a G (Feat. Rock Money and Paul Law)
TTITLE6=Clueless (Feat. Sole and Larone Burnette)
TTITLE7=Questions (Rough Draft) (Feat. Don Juan)
TTITLE8=Now It's On (Feat. Lejo and Bakarii)
TTITLE9=Bitch Sickness (Feat. Phats Bossillini and Rame Royal)
TTITLE10=Soldiers at War (Feat. Don Juan, Big Scoob, Short Nutty, and 
TTITLE10=L.V.)
TTITLE11=Cotton Soldier
TTITLE12=Relish
TTITLE13=Mitchell Bade (Interlude)
TTITLE14=Mitch Bade (Feat. Bakarii and Yolanda Mayberry)
EXTD=
EXTT0=
EXTT1=
EXTT2=
EXTT3=
EXTT4=
EXTT5=
EXTT6=
EXTT7=
EXTT8=
EXTT9=
EXTT10=
EXTT11=
EXTT12=
EXTT13=
EXTT14=
PLAYORDER=
